<?xml version="1.0" encoding="UTF-8" standalone="no"?>
<!DOCTYPE svg PUBLIC "-//W3C//DTD SVG 1.1//EN" "http://www.w3.org/Graphics/SVG/1.1/DTD/svg11.dtd">
<svg width="100%" height="100%" viewBox="0 0 74 24" version="1.1" xmlns="http://www.w3.org/2000/svg" xmlns:xlink="http://www.w3.org/1999/xlink" xml:space="preserve" xmlns:serif="http://www.serif.com/" style="fill-rule:evenodd;clip-rule:evenodd;stroke-linejoin:round;stroke-miterlimit:2;">
    <g transform="matrix(1,0,0,1,-377,-778)">
        <g transform="matrix(0.148,0,0,0.048,377,778)">
            <rect id="Hydrogen-New-MaterialGuidelines-Bright-Text" x="0" y="0" width="500" height="500" style="fill:none;"/>
            <g id="Hydrogen-New-MaterialGuidelines-Bright-Text1" serif:id="Hydrogen-New-MaterialGuidelines-Bright-Text">
                <g transform="matrix(1.91292,0,0,5.89817,-28.3293,-4300.86)">
                    <path d="M50.548,789.389L57.514,789.389L57.514,753.296L50.548,753.296L50.548,767.835L35.954,767.835L35.954,753.296L28.938,753.296L28.938,789.389L35.954,789.389L35.954,774.653L50.548,774.653L50.548,789.389Z" style="fill:rgb(11,11,30);fill-rule:nonzero;"/>
                    <path d="M65.827,799.971C71.463,799.971 74.33,797.65 77.099,790.829L88.619,762.692L81.499,762.692L74.924,779.901L68.002,762.692L60.734,762.692L71.463,788.258L71.018,789.346C69.683,792.511 68.2,793.598 65.777,793.598C64.245,793.598 63.107,792.956 62.168,791.967L58.213,797.501C60.19,798.934 63.009,799.971 65.827,799.971Z" style="fill:rgb(11,11,30);fill-rule:nonzero;"/>
                    <path d="M101.923,789.933C105.386,789.933 108.404,788.352 110.284,785.734L110.284,789.39L117.003,789.39L117.003,750.379L110.284,750.379L110.284,766.1C108.454,763.63 105.535,762.148 102.022,762.148C95.196,762.148 89.07,767.533 89.07,776.041C89.07,784.548 95.344,789.933 101.923,789.933ZM103.259,783.511C99.153,783.511 95.838,780.196 95.838,775.991C95.838,771.786 99.153,768.472 103.259,768.472C107.464,768.472 110.679,771.836 110.679,775.991C110.679,780.147 107.464,783.511 103.259,783.511Z" style="fill:rgb(11,11,30);fill-rule:nonzero;"/>
                    <path d="M122.35,789.389L129.118,789.389L129.118,775.299C129.118,770.796 131.393,769.015 134.904,769.015C136.437,769.015 137.723,769.411 138.465,769.955L140.937,763.235C139.8,762.642 138.217,762.197 136.437,762.197C133.025,762.197 130.355,763.63 129.069,766.792L129.069,762.692L122.35,762.692L122.35,789.389Z" style="fill:rgb(11,11,30);fill-rule:nonzero;"/>
                    <path d="M155.479,789.933C163.541,789.933 169.618,783.708 169.618,776.041C169.618,768.323 163.443,762.148 155.479,762.148C147.465,762.148 141.388,768.323 141.388,776.041C141.388,783.708 147.465,789.933 155.479,789.933ZM155.528,783.461C151.422,783.461 148.206,780.147 148.206,775.991C148.206,771.836 151.422,768.521 155.528,768.521C159.585,768.521 162.85,771.836 162.85,775.991C162.85,780.147 159.585,783.461 155.528,783.461Z" style="fill:rgb(11,11,30);fill-rule:nonzero;"/>
                    <path d="M186.187,789.785C189.65,789.785 192.717,788.204 194.597,785.585L194.597,787.611C194.597,791.815 191.53,794.736 187.226,794.736C183.713,794.736 181.734,793.449 179.954,791.121L174.321,795.526C177.335,799.034 181.339,800.812 187.424,800.812C195.635,800.812 201.415,795.18 201.415,787.413L201.415,762.692L194.597,762.692L194.597,766.199C192.816,763.729 189.848,762.148 186.286,762.148C179.46,762.148 173.333,767.533 173.333,775.991C173.333,784.449 179.608,789.785 186.187,789.785ZM187.523,783.461C183.416,783.461 180.102,780.147 180.102,775.942C180.102,771.687 183.416,768.422 187.523,768.422C191.728,768.422 194.943,771.737 194.943,775.942C194.943,780.147 191.728,783.461 187.523,783.461Z" style="fill:rgb(11,11,30);fill-rule:nonzero;"/>
                    <path d="M220.061,789.933C225.944,789.933 229.701,787.512 232.371,783.758L226.784,780.49C225.45,782.668 223.324,784.055 220.16,784.055C216.204,784.055 213.386,781.876 212.497,778.411L233.706,778.411L233.706,775.843C233.706,767.928 227.922,762.148 219.912,762.148C211.953,762.148 205.921,768.324 205.921,776.09C205.921,783.857 211.458,789.933 220.061,789.933ZM219.912,767.928C223.472,767.928 226.043,769.759 226.933,773.077L212.694,773.077C213.782,769.957 216.452,767.928 219.912,767.928Z" style="fill:rgb(11,11,30);fill-rule:nonzero;"/>
                    <path d="M238.163,789.389L245.03,789.389L245.03,774.656C245.03,770.499 247.504,768.125 250.72,768.125C254.332,768.125 256.163,770.499 256.163,774.307L256.163,789.389L263.129,789.389L263.129,773.272C263.129,766.298 259.127,762.148 252.798,762.148C249.483,762.148 246.712,763.63 244.981,766.051L244.981,762.692L238.163,762.692L238.163,789.389Z" style="fill:rgb(11,11,30);fill-rule:nonzero;"/>
                </g>
            </g>
        </g>
    </g>
</svg>
