<?xml version="1.0" encoding="UTF-8"?><svg version="1.1" viewBox="0 0 24 24" xmlns="http://www.w3.org/2000/svg" xmlns:xlink="http://www.w3.org/1999/xlink"><path d="M17 21h-5l-3.93403e-07-7.10543e-15c-4.97056-2.1727e-07-9-4.02944-9-9 2.1727e-07-4.97056 4.02944-9 9-9 4.97056 2.1727e-07 9 4.02944 9 9v1.5 0c0 1.38071-1.11929 2.5-2.5 2.5 -1.38071 0-2.5-1.11929-2.5-2.5v-1.5 0c0-2.20914-1.79086-4-4-4v0l-1.74846e-07 3.55271e-15c-2.20914 9.65645e-08-4 1.79086-4 4 9.65645e-08 2.20914 1.79086 4 4 4 2.20914-9.65645e-08 4-1.79086 4-4" stroke-linecap="round" stroke-width="1.5" stroke="#323232" fill="none" stroke-linejoin="round"></path><path fill="none" d="M0 0h24v24h-24Z"></path></svg>