<?xml version="1.0" encoding="UTF-8"?><svg version="1.1" viewBox="0 0 24 24" xmlns="http://www.w3.org/2000/svg" xmlns:xlink="http://www.w3.org/1999/xlink"><!--Generated by IJSVG (https://github.com/iconjar/IJSVG)--><g fill="none"><path d="M0,0h24v24h-24Z"></path><path stroke="#323232" stroke-linecap="round" stroke-linejoin="round" stroke-width="1.5" d="M18.364,5.63604c3.51472,3.51472 3.51472,9.2132 0,12.7279c-3.51472,3.51472 -9.2132,3.51472 -12.7279,0c-3.51472,-3.51472 -3.51472,-9.2132 -1.77636e-15,-12.7279c3.51472,-3.51472 9.2132,-3.51472 12.7279,-1.77636e-15"></path><path stroke="#323232" stroke-linecap="round" stroke-linejoin="round" stroke-width="1.5" d="M15.583,10.292l-3.023,-2.115c-0.337,-0.236 -0.785,-0.236 -1.121,0l-3.022,2.115c-0.261,0.183 -0.417,0.482 -0.417,0.801v3.929c0,0.54 0.438,0.978 0.978,0.978h6.044c0.54,0 0.978,-0.438 0.978,-0.978v-3.929c0,-0.319 -0.156,-0.618 -0.417,-0.801Z"></path></g></svg>