<?xml version="1.0" encoding="UTF-8"?><svg version="1.1" viewBox="0 0 24 24" xmlns="http://www.w3.org/2000/svg" xmlns:xlink="http://www.w3.org/1999/xlink"><g fill="none"><path d="M0 0h24v24h-24Z"></path><path stroke="#323232" stroke-linecap="round" stroke-linejoin="round" stroke-width="1.5" d="M13.9092 10.0908c1.05442 1.05442 1.05442 2.76396 0 3.81838 -1.05442 1.05442-2.76396 1.05442-3.81838 0 -1.05442-1.05442-1.05442-2.76396-1.77636e-15-3.81838 1.05442-1.05442 2.76396-1.05442 3.81838-1.77636e-15"></path><path stroke="#323232" stroke-linecap="round" stroke-linejoin="round" stroke-width="1.5" d="M5.25 12c0 .297.027.594.063.882l-1.588 1.242c-.352.276-.448.769-.224 1.156l1.412 2.443c.223.387.697.55 1.112.384l1.422-.571c.281-.113.594-.068.846.099 .22.146.448.28.684.4 .27.137.466.382.509.682l.217 1.513c.063.442.442.77.888.77h2.817c.446 0 .825-.328.888-.77l.217-1.512c.043-.3.241-.547.512-.683 .235-.118.462-.251.681-.396 .254-.168.568-.216.85-.102l1.419.57c.414.166.888.003 1.112-.384l1.412-2.443c.224-.387.128-.881-.224-1.156l-1.588-1.242c.036-.288.063-.585.063-.882 0-.297-.027-.594-.063-.882l1.588-1.242c.352-.276.448-.769.224-1.156l-1.412-2.443c-.223-.387-.697-.55-1.112-.384l-1.419.57c-.282.113-.596.066-.85-.102 -.219-.145-.446-.278-.681-.396 -.271-.136-.469-.383-.512-.683l-.216-1.512c-.063-.442-.442-.77-.888-.77h-2.817c-.446 0-.825.328-.888.77l-.218 1.514c-.043.299-.24.545-.509.682 -.236.12-.464.255-.684.4 -.253.166-.566.211-.847.098l-1.421-.571c-.415-.166-.889-.003-1.112.384l-1.412 2.443c-.224.387-.128.881.224 1.156l1.588 1.242c-.036.288-.063.585-.063.882Z"></path></g></svg>